<svg width="106" height="106" viewBox="0 0 106 106" fill="none" xmlns="http://www.w3.org/2000/svg">
<path d="M53.0001 97.1667C28.6068 97.1667 8.83341 77.3933 8.83341 53C8.83341 28.6068 28.6068 8.83337 53.0001 8.83337C77.3933 8.83337 97.1667 28.6068 97.1667 53C97.1667 77.3933 77.3933 97.1667 53.0001 97.1667Z" stroke="#05C269" stroke-width="6" stroke-linecap="round" stroke-linejoin="round"/>
<path d="M97.1667 53H8.83341" stroke="#05C269" stroke-width="6" stroke-linecap="round" stroke-linejoin="round"/>
<path d="M53.0001 97.1667C43.2437 97.1667 35.3334 77.3933 35.3334 53C35.3334 28.6068 43.2437 8.83337 53.0001 8.83337C62.7565 8.83337 70.6667 28.6068 70.6667 53C70.6667 77.3933 62.7565 97.1667 53.0001 97.1667Z" stroke="#05C269" stroke-width="6" stroke-linecap="round" stroke-linejoin="round"/>
<path d="M21.7697 83.6031C25.8663 79.4957 30.7343 76.2383 36.0938 74.0183C41.4534 71.7982 47.1988 70.6592 53 70.6667C58.8011 70.6592 64.5466 71.7982 69.9061 74.0183C75.2656 76.2383 80.1336 79.4957 84.2302 83.6031M84.2302 22.397C80.1336 26.5044 75.2656 29.7618 69.9061 31.9818C64.5466 34.2019 58.8011 35.3409 53 35.3334V35.3334C47.1988 35.3409 41.4534 34.2019 36.0938 31.9818C30.7343 29.7618 25.8663 26.5044 21.7697 22.397H84.2302Z" stroke="#05C269" stroke-width="6" stroke-linecap="round" stroke-linejoin="round"/>
</svg>
