<svg width="128" height="129" viewBox="0 0 128 129" fill="none" xmlns="http://www.w3.org/2000/svg">
<path d="M69.056 77.6103H87.1386C88.2087 77.6103 89.0752 78.4836 89.0752 79.562V107.857C89.0752 108.935 88.2087 109.809 87.1386 109.809H69.056C67.9859 109.809 67.1207 108.935 67.1207 107.857V79.5608C67.1207 78.4823 67.9872 77.6103 69.056 77.6103ZM40.8615 19.1926H58.944C60.0141 19.1926 60.8807 20.066 60.8807 21.1444V107.856C60.8807 108.934 60.0141 109.807 58.944 109.807H40.8615C39.7914 109.807 38.9248 108.934 38.9248 107.856V21.1444C38.9248 20.066 39.7914 19.1926 40.8615 19.1926ZM12.5223 45.5357H30.6048C31.6749 45.5357 32.5415 46.409 32.5415 47.4875V107.856C32.5415 108.934 31.6749 109.807 30.6048 109.807H12.5235C11.4535 109.807 10.5869 108.934 10.5869 107.856V47.4875C10.5869 46.4103 11.4535 45.5357 12.5223 45.5357ZM97.3952 45.5357H115.478C116.548 45.5357 117.414 46.409 117.414 47.4875V107.856C117.414 108.934 116.548 109.807 115.478 109.807H97.3952C96.3251 109.807 95.4586 108.934 95.4586 107.856V47.4875C95.4586 46.4103 96.3251 45.5357 97.3952 45.5357Z" fill="#05C269"/>
</svg>
