<svg width="113" height="57" viewBox="0 0 113 57" fill="none" xmlns="http://www.w3.org/2000/svg">
<path d="M-25 38L-5.5782 22.2421C-5.20806 21.9417 -4.68527 21.9187 -4.29014 22.1852L19.1527 38M19.4236 38L38.8454 22.2421C39.2156 21.9417 39.7384 21.9187 40.1335 22.1852L63.5764 38M63.8472 38L83.269 22.2421C83.6392 21.9417 84.162 21.9187 84.5571 22.1852L108 38" stroke="#05C269" stroke-opacity="0.56" stroke-width="3" stroke-linecap="round"/>
<path d="M-22 55L-2.5782 39.2421C-2.20806 38.9417 -1.68527 38.9187 -1.29014 39.1852L22.1527 55M22.4236 55L41.8454 39.2421C42.2156 38.9417 42.7384 38.9187 43.1335 39.1852L66.5764 55M66.8472 55L86.269 39.2421C86.6392 38.9417 87.162 38.9187 87.5571 39.1852L111 55" stroke="#05C269" stroke-opacity="0.56" stroke-width="3" stroke-linecap="round"/>
<path d="M-25 18L-5.5782 2.24205C-5.20806 1.94173 -4.68527 1.91866 -4.29014 2.18522L19.1527 18M19.4236 18L38.8454 2.24205C39.2156 1.94173 39.7384 1.91866 40.1335 2.18522L63.5764 18M63.8472 18L83.269 2.24205C83.6392 1.94173 84.162 1.91866 84.5571 2.18522L108 18" stroke="#05C269" stroke-opacity="0.56" stroke-width="3" stroke-linecap="round"/>
</svg>
