<svg width="144" height="36" viewBox="0 0 144 36" fill="none" xmlns="http://www.w3.org/2000/svg">
<g clip-path="url(#clip0_41_37)">
<path d="M18.8313 19.0934C16.428 19.0934 14.5185 20.0399 13.1687 21.9002C12.2469 20.1378 10.4033 19.0607 8.39506 19.0934C6.4856 19.0281 4.6749 19.844 3.45679 21.3128V20.9864C3.45679 20.0399 2.66667 19.2566 1.71193 19.2566C0.757202 19.2566 0 20.0399 0 20.9864V34.1396C0.0329218 35.0861 0.855967 35.8368 1.8107 35.7715C2.69959 35.7389 3.42387 35.0208 3.45679 34.1396V25.0335C4.24691 23.7606 5.4321 22.3245 7.57202 22.3245C9.61317 22.3245 10.4033 23.3037 10.4033 25.8495V34.1396C10.4362 35.0861 11.2593 35.8368 12.214 35.7715C13.1029 35.7389 13.8272 35.0208 13.8601 34.1396V25.0335C14.6502 23.7606 15.8354 22.3245 17.9753 22.3245C20.0165 22.3245 20.8066 23.3037 20.8066 25.8495V34.1396C20.8395 35.0861 21.6626 35.8368 22.6173 35.7715C23.5062 35.7389 24.2305 35.0208 24.2634 34.1396V25.2946C24.3292 22.2919 22.6173 19.0934 18.8313 19.0934Z" fill="black"/>
<path d="M35.4239 19.0934C33.5473 19.0934 31.6708 19.485 29.9588 20.2357C29.3333 20.4642 28.9383 21.0517 28.9383 21.7044C28.9383 22.5204 29.5638 23.1732 30.3868 23.2058H30.4197C30.5844 23.2058 30.749 23.1732 30.9136 23.1405C32.1975 22.6836 33.5473 22.4225 34.93 22.4225C37.5967 22.4225 38.716 23.4016 38.749 25.8169H35.3251C30.6831 25.7842 27.8848 27.7425 27.8848 31.0716C27.8848 34.3028 30.5844 36 33.251 36C35.2593 36.0653 37.2016 35.3799 38.749 34.107V34.1396C38.7819 35.0861 39.6049 35.8368 40.5597 35.7715C41.4486 35.7389 42.1728 35.0209 42.2058 34.1396V25.4578C42.2058 22.2919 40.0988 19.0934 35.4239 19.0934V19.0934ZM34.3045 32.8994C32.3621 32.8994 31.3416 32.1813 31.3416 30.7779C31.3416 30.2557 31.3416 28.689 35.6872 28.689H38.749V30.8105C37.8272 31.7897 36.1481 32.8994 34.3045 32.8994Z" fill="black"/>
<path d="M48.823 12.9574H49.0206C50.0741 12.9574 50.93 13.806 50.93 14.8504V14.981C50.93 16.0254 50.0741 16.874 49.0206 16.874H48.823C47.7695 16.874 46.9136 16.0254 46.9136 14.981V14.8504C46.9136 13.806 47.7695 12.9574 48.823 12.9574Z" fill="black"/>
<path d="M48.8889 19.2239C47.9342 19.2239 47.177 19.9746 47.177 20.9211V20.9538V34.107C47.2099 35.0535 48.033 35.8042 48.9877 35.7389C49.8766 35.7063 50.6009 34.9882 50.6338 34.107V20.9538C50.6338 20.0073 49.8766 19.2239 48.8889 19.2239V19.2239Z" fill="black"/>
<path d="M57.679 12.4678C56.7242 12.4678 55.967 13.2185 55.967 14.165V14.1977V34.107C56 35.0535 56.823 35.8042 57.7777 35.7389C58.6666 35.7063 59.3909 34.9882 59.4238 34.107V14.1977C59.4238 13.2512 58.6666 12.4678 57.7119 12.4678C57.679 12.4678 57.679 12.4678 57.679 12.4678V12.4678Z" fill="black"/>
<path d="M71.4074 19.0934C68.9383 19.0934 66.8971 20.0073 65.5144 21.7371C64.3292 23.2384 63.6708 25.2947 63.6708 27.5467C63.6708 32.8341 66.7983 36 72 36C74.8642 36 76.2798 35.3472 77.5967 34.5966C78.1564 34.3355 78.5185 33.7806 78.5844 33.1605C78.5844 32.3119 77.893 31.6265 77.07 31.6265H77.037C76.8066 31.6265 76.5432 31.6591 76.3457 31.7897C75.0946 32.4424 73.7119 32.7362 72.3292 32.7035C69.4321 32.7035 67.7202 31.3654 67.2922 28.8196H77.3663C78.2881 28.8522 79.0782 28.1342 79.1111 27.2203C79.1111 27.1877 79.1111 27.155 79.1111 27.0898C79.1111 21.6065 75.1276 19.0934 71.4074 19.0934V19.0934ZM71.4074 22.0961C72.856 22.0961 75.2922 22.9121 75.6214 25.9148H67.1934C67.5226 23.2711 69.4979 22.0961 71.4074 22.0961V22.0961Z" fill="black"/>
<path d="M91.1275 19.0934H90.9629C89.3168 19.0934 87.8024 19.8767 86.4197 21.378V20.9864C86.4197 20.0399 85.6296 19.2566 84.6748 19.2566C83.7201 19.2566 82.93 20.0399 82.9629 20.9864V34.1396C82.9958 35.0861 83.8189 35.8368 84.7736 35.7715C85.6625 35.7389 86.3868 35.0208 86.4197 34.1396V24.903C87.539 23.3037 89.1193 22.4225 90.8971 22.4225H91.0617C91.9835 22.4877 92.7407 21.8023 92.8065 20.8885C92.8065 20.8558 92.8065 20.8232 92.8065 20.7906C92.8395 19.8767 92.0822 19.0934 91.1604 19.0607C91.1604 19.0934 91.1275 19.0934 91.1275 19.0934V19.0934Z" fill="black"/>
<path d="M139.062 0H104.033C101.3 0 99.0946 2.18676 99.0946 4.89574V36L105.909 29.3092H139.095C141.827 29.3092 144.033 27.1224 144.033 24.4134V4.89574C144 2.18676 141.794 0 139.062 0ZM109.597 21.9329C109.597 22.6509 109.004 23.2384 108.28 23.2384C107.556 23.2384 106.963 22.6509 106.963 21.9329V8.06165C106.963 7.34361 107.556 6.75612 108.28 6.75612C109.004 6.75612 109.597 7.34361 109.597 8.06165V21.9329ZM115.72 21.9329C115.72 22.6509 115.128 23.2384 114.403 23.2384C113.679 23.2384 113.086 22.6509 113.086 21.9329V12.7616C113.086 12.0435 113.679 11.456 114.403 11.456C115.128 11.456 115.72 12.0435 115.72 12.7616V21.9329ZM115.885 8.58386C115.885 9.36718 115.259 9.98731 114.469 9.98731H114.337C113.547 9.98731 112.922 9.36718 112.922 8.58386V8.48595C112.922 7.70263 113.547 7.0825 114.337 7.0825H114.469C115.259 7.0825 115.885 7.70263 115.885 8.48595V8.58386ZM125.169 22.9121C124.576 23.2058 123.918 23.3364 123.226 23.3364C120.955 23.3364 119.737 22.2593 119.737 20.2031V13.9039H118.551C118.156 13.9039 117.827 13.6102 117.827 13.2185V13.1859C117.827 12.9574 117.959 12.7289 118.156 12.5657L121.086 9.7262C121.251 9.56301 121.449 9.46509 121.679 9.43246C122.074 9.43246 122.436 9.75884 122.436 10.1505V10.1831V11.5539H124.543C125.202 11.5539 125.728 12.0762 125.728 12.7289C125.728 13.3817 125.202 13.9039 124.543 13.9039H122.436V20.0399C122.436 20.9211 122.897 20.9864 123.523 20.9864C123.786 20.9864 124.049 20.9538 124.28 20.8885C124.444 20.8232 124.642 20.8232 124.807 20.7906C125.399 20.7906 125.893 21.2801 125.926 21.9003C125.86 22.3246 125.564 22.7489 125.169 22.9121V22.9121ZM133.235 20.8885C134.189 20.9211 135.144 20.6927 136 20.2684C136.165 20.1704 136.362 20.1378 136.527 20.1378C137.185 20.1378 137.712 20.6274 137.712 21.2801V21.3128C137.679 21.7697 137.416 22.194 136.988 22.3898C136.066 22.9121 135.078 23.369 133.037 23.369C129.35 23.369 127.111 21.117 127.111 17.3636C127.111 12.9574 130.074 11.3581 132.576 11.3581C136.329 11.3581 138.041 14.3282 138.041 17.0698C138.074 17.7552 137.514 18.3427 136.823 18.3753C136.79 18.3753 136.757 18.3753 136.724 18.3753H129.811C130.173 20.0073 131.358 20.8885 133.235 20.8885V20.8885Z" fill="#21C16C"/>
<path d="M132.642 13.6754C131.193 13.6428 129.975 14.7198 129.844 16.1559H135.473C135.309 14.7198 134.09 13.6428 132.642 13.6754Z" fill="#21C16C"/>
</g>
<defs>
<clipPath id="clip0_41_37">
<rect width="144" height="36" fill="white"/>
</clipPath>
</defs>
</svg>
