<svg width="88" height="91" viewBox="0 0 88 91" fill="none" xmlns="http://www.w3.org/2000/svg">
<mask id="path-1-inside-1_48_81" fill="white">
<path d="M0 35.2595C0 33.0504 1.79086 31.2595 4 31.2595H30.6457C32.8548 31.2595 34.6457 33.0504 34.6457 35.2595V91H14C6.26801 91 0 84.732 0 77V35.2595Z"/>
</mask>
<path d="M0 35.2595C0 33.0504 1.79086 31.2595 4 31.2595H30.6457C32.8548 31.2595 34.6457 33.0504 34.6457 35.2595V91H14C6.26801 91 0 84.732 0 77V35.2595Z" fill="#05C269" fill-opacity="0.14" stroke="#05C269" stroke-width="12" mask="url(#path-1-inside-1_48_81)"/>
<mask id="path-2-inside-2_48_81" fill="white">
<path d="M15.2441 4C15.2441 1.79086 17.035 0 19.2441 0H84C86.2092 0 88 1.79086 88 4V75C88 83.8366 80.8366 91 72 91H22.2441C18.3781 91 15.2441 87.866 15.2441 84V4Z"/>
</mask>
<path d="M15.2441 4C15.2441 1.79086 17.035 0 19.2441 0H84C86.2092 0 88 1.79086 88 4V75C88 83.8366 80.8366 91 72 91H22.2441C18.3781 91 15.2441 87.866 15.2441 84V4Z" fill="white" stroke="#05C269" stroke-width="12" mask="url(#path-2-inside-2_48_81)"/>
<path d="M8 85.5C11.5 87.5 17.5 85.5 18 80" stroke="#05C269" stroke-width="5" stroke-linecap="round"/>
<rect x="26.4662" y="15.3817" width="50.2857" height="6.63318" rx="3.31659" fill="#05C269"/>
<rect x="26.4662" y="54.5176" width="50.2857" height="6.63319" rx="3.31659" fill="#05C269"/>
<rect x="26.4662" y="67.7839" width="50.2857" height="6.63319" rx="3.31659" fill="#05C269"/>
<rect x="52.9324" y="28.6481" width="23.8195" height="6.63318" rx="3.31659" fill="#05C269"/>
<rect x="26.4662" y="28.6481" width="19.8496" height="19.8996" rx="4" fill="#05C269"/>
<rect x="52.9324" y="41.9144" width="23.8195" height="6.63318" rx="3.31659" fill="#05C269"/>
</svg>
